<?xml version="1.0" encoding="utf-8"?>
<!-- Generator: Adobe Illustrator 17.0.0, SVG Export Plug-In . SVG Version: 6.00 Build 0)  -->
<!DOCTYPE svg PUBLIC "-//W3C//DTD SVG 1.1//EN" "http://www.w3.org/Graphics/SVG/1.1/DTD/svg11.dtd">
<svg version="1.1" id="Layer_1" xmlns="http://www.w3.org/2000/svg" xmlns:xlink="http://www.w3.org/1999/xlink" x="0px" y="0px"
	 width="500px" height="500px" viewBox="0 0 500 500" enable-background="new 0 0 500 500" xml:space="preserve">
<g>
	<path fill="#454545" d="M21.299,218.705v-78.707h11.094l25.224,39.821c5.839,9.225,10.393,17.516,14.13,25.574l0.234-0.117
		c-0.934-10.509-1.168-20.085-1.168-32.347v-32.931h9.575v78.707H70.112l-24.99-39.938c-5.489-8.758-10.744-17.75-14.714-26.275
		l-0.351,0.117c0.584,9.926,0.818,19.385,0.818,32.464v33.632H21.299z"/>
	<path fill="#454545" d="M148.933,189.978c0,20.903-14.48,30.012-28.143,30.012c-15.298,0-27.092-11.211-27.092-29.078
		c0-18.918,12.378-30.012,28.026-30.012C137.956,160.901,148.933,172.695,148.933,189.978z M104.091,190.562
		c0,12.378,7.123,21.721,17.166,21.721c9.809,0,17.166-9.225,17.166-21.954c0-9.575-4.788-21.72-16.933-21.72
		C109.346,168.608,104.091,179.819,104.091,190.562z"/>
	<path fill="#454545" d="M198.093,146.304c0.117,3.503-2.452,6.306-6.539,6.306c-3.62,0-6.189-2.803-6.189-6.306
		c0-3.62,2.686-6.423,6.423-6.423C195.641,139.881,198.093,142.683,198.093,146.304z M186.649,218.705v-56.52h10.276v56.52H186.649z
		"/>
	<path fill="#454545" d="M213.974,177.483c0-5.839-0.117-10.627-0.467-15.298h8.992l0.467,9.109h0.351
		c3.153-5.372,8.408-10.393,17.75-10.393c7.708,0,13.546,4.671,15.999,11.327h0.233c1.752-3.153,3.97-5.605,6.306-7.357
		c3.386-2.57,7.123-3.971,12.496-3.971c7.474,0,18.567,4.905,18.567,24.523v33.281h-10.043v-31.997c0-10.861-3.97-17.4-12.261-17.4
		c-5.839,0-10.393,4.321-12.145,9.342c-0.467,1.401-0.817,3.27-0.817,5.138v34.916h-10.043V184.84
		c0-8.992-3.971-15.531-11.795-15.531c-6.423,0-11.094,5.138-12.729,10.276c-0.584,1.518-0.817,3.27-0.817,5.021v34.099h-10.043
		V177.483z"/>
	<path fill="#454545" d="M342.659,218.705l-0.817-7.123h-0.349c-3.154,4.437-9.225,8.408-17.283,8.408
		c-11.445,0-17.283-8.058-17.283-16.232c0-13.663,12.145-21.137,33.982-21.02v-1.168c0-4.671-1.285-13.079-12.846-13.079
		c-5.254,0-10.743,1.635-14.714,4.204l-2.335-6.773c4.67-3.036,11.444-5.021,18.567-5.021c17.283,0,21.487,11.794,21.487,23.122
		v21.137c0,4.905,0.233,9.693,0.934,13.546H342.659z M341.142,189.861c-11.211-0.234-23.939,1.751-23.939,12.728
		c0,6.656,4.438,9.809,9.692,9.809c7.358,0,12.028-4.671,13.663-9.459c0.351-1.051,0.584-2.219,0.584-3.27V189.861z"/>
	<path fill="#454545" d="M416.345,162.185c-0.233,4.087-0.467,8.642-0.467,15.531v32.814c0,12.962-2.57,20.903-8.058,25.808
		c-5.489,5.138-13.43,6.773-20.553,6.773c-6.773,0-14.246-1.635-18.801-4.671l2.57-7.823c3.737,2.335,9.575,4.437,16.582,4.437
		c10.509,0,18.216-5.489,18.216-19.735v-6.306h-0.233c-3.153,5.255-9.225,9.459-17.983,9.459c-14.013,0-24.056-11.912-24.056-27.56
		c0-19.151,12.495-30.012,25.457-30.012c9.809,0,15.181,5.138,17.634,9.809h0.233l0.467-8.525H416.345z M405.718,184.489
		c0-1.752-0.117-3.27-0.584-4.671c-1.869-5.956-6.89-10.861-14.363-10.861c-9.809,0-16.816,8.291-16.816,21.37
		c0,11.094,5.606,20.319,16.699,20.319c6.306,0,12.028-3.97,14.247-10.51c0.584-1.752,0.817-3.737,0.817-5.489V184.489z"/>
	<path fill="#454545" d="M438.647,192.314c0.234,13.896,9.109,19.618,19.385,19.618c7.357,0,11.794-1.285,15.649-2.92l1.751,7.357
		c-3.62,1.635-9.808,3.503-18.8,3.503c-17.4,0-27.793-11.444-27.793-28.494c0-17.049,10.043-30.479,26.507-30.479
		c18.451,0,23.356,16.232,23.356,26.625c0,2.102-0.233,3.737-0.351,4.788H438.647z M468.776,184.957
		c0.116-6.54-2.686-16.699-14.247-16.699c-10.393,0-14.947,9.575-15.765,16.699H468.776z"/>
	<path fill="#454545" d="M71.98,358.834l-0.817-7.123h-0.351c-3.153,4.437-9.225,8.408-17.283,8.408
		c-11.444,0-17.283-8.058-17.283-16.232c0-13.662,12.145-21.136,33.982-21.02v-1.168c0-4.671-1.285-13.078-12.846-13.078
		c-5.255,0-10.743,1.635-14.714,4.204l-2.336-6.773c4.671-3.037,11.444-5.022,18.568-5.022c17.283,0,21.487,11.794,21.487,23.122
		v21.136c0,4.905,0.234,9.692,0.934,13.546H71.98z M70.462,329.99c-11.211-0.233-23.94,1.752-23.94,12.729
		c0,6.656,4.437,9.809,9.693,9.809c7.356,0,12.028-4.671,13.663-9.459c0.35-1.052,0.584-2.218,0.584-3.27V329.99z"/>
	<path fill="#454545" d="M100.005,302.315l11.094,31.763c1.868,5.138,3.386,9.809,4.554,14.481h0.351
		c1.285-4.671,2.919-9.343,4.787-14.481l10.977-31.763h10.743l-22.187,56.52h-9.809l-21.487-56.52H100.005z"/>
	<path fill="#454545" d="M183.032,358.834l-0.817-7.123h-0.351c-3.153,4.437-9.225,8.408-17.283,8.408
		c-11.444,0-17.283-8.058-17.283-16.232c0-13.662,12.145-21.136,33.982-21.02v-1.168c0-4.671-1.285-13.078-12.846-13.078
		c-5.255,0-10.743,1.635-14.714,4.204l-2.336-6.773c4.671-3.037,11.444-5.022,18.568-5.022c17.283,0,21.487,11.794,21.487,23.122
		v21.136c0,4.905,0.234,9.692,0.934,13.546H183.032z M181.514,329.99c-11.211-0.233-23.939,1.752-23.939,12.729
		c0,6.656,4.437,9.809,9.693,9.809c7.356,0,12.028-4.671,13.663-9.459c0.35-1.052,0.584-2.218,0.584-3.27V329.99z"/>
	<path fill="#454545" d="M219.464,286.433c0.117,3.504-2.452,6.306-6.539,6.306c-3.62,0-6.189-2.802-6.189-6.306
		c0-3.621,2.686-6.423,6.423-6.423C217.012,280.01,219.464,282.812,219.464,286.433z M208.02,358.834v-56.52h10.276v56.52H208.02z"
		/>
	<path fill="#454545" d="M235.345,275.922h10.276v82.912h-10.276V275.922z"/>
	<path fill="#454545" d="M294.199,358.834l-0.817-7.123h-0.349c-3.153,4.437-9.225,8.408-17.283,8.408
		c-11.445,0-17.283-8.058-17.283-16.232c0-13.662,12.145-21.136,33.982-21.02v-1.168c0-4.671-1.285-13.078-12.846-13.078
		c-5.254,0-10.743,1.635-14.714,4.204l-2.335-6.773c4.67-3.037,11.444-5.022,18.567-5.022c17.283,0,21.487,11.794,21.487,23.122
		v21.136c0,4.905,0.233,9.692,0.934,13.546H294.199z M292.681,329.99c-11.211-0.233-23.939,1.752-23.939,12.729
		c0,6.656,4.438,9.809,9.692,9.809c7.358,0,12.028-4.671,13.663-9.459c0.351-1.052,0.584-2.218,0.584-3.27V329.99z"/>
	<path fill="#454545" d="M318.721,358.834c0.233-3.854,0.467-9.576,0.467-14.597v-68.315h10.16v35.501h0.233
		c3.621-6.306,10.16-10.393,19.268-10.393c14.013,0,23.94,11.677,23.822,28.844c0,20.202-12.728,30.245-25.341,30.245
		c-8.174,0-14.713-3.154-18.918-10.628h-0.351l-0.467,9.343H318.721z M329.348,336.18c0,1.284,0.233,2.569,0.467,3.737
		c1.985,7.123,7.941,12.028,15.415,12.028c10.743,0,17.166-8.759,17.166-21.72c0-11.328-5.839-21.02-16.815-21.02
		c-7.007,0-13.546,4.788-15.649,12.612c-0.233,1.168-0.584,2.569-0.584,4.204V336.18z"/>
	<path fill="#454545" d="M385.631,275.922h10.277v82.912h-10.277V275.922z"/>
	<path fill="#454545" d="M418.911,332.443c0.234,13.896,9.109,19.619,19.385,19.619c7.356,0,11.794-1.285,15.649-2.92l1.751,7.357
		c-3.62,1.635-9.808,3.503-18.8,3.503c-17.4,0-27.793-11.444-27.793-28.494s10.043-30.479,26.507-30.479
		c18.451,0,23.356,16.232,23.356,26.625c0,2.102-0.233,3.737-0.351,4.789H418.911z M449.04,325.086
		c0.116-6.539-2.686-16.698-14.247-16.698c-10.393,0-14.947,9.575-15.765,16.698H449.04z"/>
</g>
</svg>
